<?xml version="1.0" standalone="no"?>
<!DOCTYPE svg PUBLIC "-//W3C//DTD SVG 20010904//EN"
 "http://www.w3.org/TR/2001/REC-SVG-20010904/DTD/svg10.dtd">
<svg version="1.0" xmlns="http://www.w3.org/2000/svg"
 width="700.000000pt" height="700.000000pt" viewBox="0 0 700.000000 700.000000"
 preserveAspectRatio="xMidYMid meet">
<metadata>
Created by potrace 1.11, written by Peter Selinger 2001-2013
</metadata>
<g transform="translate(0.000000,700.000000) scale(0.100000,-0.100000)"
fill="#000000" stroke="none">
<path d="M3378 6415 c-2 -1 -48 -5 -103 -9 -222 -14 -545 -79 -720 -145 -175
-66 -234 -91 -355 -151 -281 -140 -523 -313 -750 -540 -188 -187 -287 -312
-446 -560 -22 -35 -114 -200 -114 -205 0 -2 -20 -45 -44 -96 -107 -229 -205
-563 -232 -794 -4 -27 -8 -52 -9 -55 -8 -13 -19 -227 -19 -360 0 -225 11 -345
50 -545 142 -746 564 -1398 1190 -1842 55 -39 116 -80 135 -91 19 -10 59 -34
88 -52 205 -121 523 -249 751 -301 25 -6 54 -13 65 -15 101 -24 273 -50 400
-61 143 -12 557 -4 584 11 3 2 35 7 70 10 36 4 67 8 70 10 3 2 27 7 52 10 58
8 257 59 363 93 660 213 1251 686 1605 1287 203 344 323 691 385 1116 26 176
26 538 1 730 -13 91 -37 227 -50 280 -8 30 -16 66 -19 80 -3 14 -12 50 -21 80
-9 30 -17 62 -19 70 -2 8 -23 67 -46 130 -209 571 -598 1069 -1100 1412 -168
114 -386 231 -545 292 -38 15 -79 31 -90 36 -45 20 -253 81 -358 104 -112 25
-265 49 -387 62 -63 6 -377 14 -382 9z m-558 -1253 c75 -94 236 -262 335 -351
402 -358 994 -633 1500 -696 28 -4 61 -8 75 -11 136 -23 510 -23 690 0 133 17
146 19 249 41 36 7 67 13 68 11 1 -1 13 -47 27 -101 27 -109 51 -252 61 -355
6 -72 7 -332 0 -395 -12 -115 -19 -168 -36 -252 -6 -29 -10 -55 -10 -58 0 -2
-9 -37 -20 -77 -12 -40 -22 -80 -24 -88 -2 -8 -15 -46 -28 -85 -123 -350 -297
-626 -562 -890 -197 -197 -370 -324 -605 -441 -543 -272 -1162 -321 -1740
-138 -479 150 -897 455 -1199 871 -184 256 -322 572 -386 888 -23 116 -29 158
-41 275 -8 81 -8 350 1 397 6 41 8 42 118 98 294 148 534 322 762 550 255 255
426 497 583 824 l64 135 20 -27 c11 -15 55 -71 98 -125z"/>
<path d="M4368 3575 c-2 -2 -24 -5 -50 -8 -136 -16 -264 -134 -298 -276 -11
-49 -9 -143 5 -186 73 -220 319 -323 520 -217 85 46 142 114 175 211 71 211
-69 434 -294 469 -30 5 -57 8 -58 7z"/>
<path d="M2509 3555 c-83 -30 -164 -99 -202 -170 -11 -22 -22 -44 -24 -50 -35
-132 -23 -240 39 -328 129 -186 385 -216 549 -65 188 172 140 482 -91 596 -46
23 -69 27 -145 29 -53 1 -105 -4 -126 -12z"/>
</g>
</svg>
