<?xml version="1.0" standalone="no"?>
<!DOCTYPE svg PUBLIC "-//W3C//DTD SVG 20010904//EN"
 "http://www.w3.org/TR/2001/REC-SVG-20010904/DTD/svg10.dtd">
<svg version="1.0" xmlns="http://www.w3.org/2000/svg"
 width="261.000000pt" height="261.000000pt" viewBox="0 0 261.000000 261.000000"
 preserveAspectRatio="xMidYMid meet">
<metadata>
Created by potrace 1.11, written by Peter Selinger 2001-2013
</metadata>
<g transform="translate(0.000000,261.000000) scale(0.100000,-0.100000)"
fill="#000000" stroke="none">
<path d="M1257 2604 c-1 -1 -35 -4 -74 -8 -296 -25 -572 -156 -794 -376 -191
-190 -304 -402 -360 -673 -27 -131 -30 -396 -5 -468 3 -8 7 -30 10 -50 10 -65
57 -202 102 -293 154 -312 413 -545 732 -660 40 -14 82 -28 95 -30 12 -3 56
-13 97 -22 82 -18 331 -25 432 -11 514 69 960 475 1078 981 28 120 32 150 35
276 9 362 -126 698 -380 952 -213 212 -505 350 -793 374 -68 5 -172 10 -175 8z
m-191 -633 c136 -145 268 -235 472 -322 66 -29 218 -66 319 -80 82 -10 293 -8
348 4 11 3 39 8 61 11 47 8 42 21 67 -145 66 -429 -168 -867 -569 -1068 -394
-196 -878 -116 -1187 196 -153 155 -241 319 -293 546 -3 12 -8 84 -11 159 l-6
137 79 39 c241 122 449 337 575 594 l33 67 16 -27 c9 -15 52 -65 96 -111z"/>
<path d="M852 1320 c-84 -38 -120 -130 -84 -213 58 -131 243 -131 298 0 58
135 -81 272 -214 213z"/>
<path d="M1632 1320 c-87 -39 -124 -145 -78 -226 31 -55 67 -77 133 -82 48 -3
64 0 92 20 51 34 73 71 79 127 11 122 -114 211 -226 161z"/>
</g>
</svg>
